<?xml version="1.0" standalone="no"?>
<!DOCTYPE svg PUBLIC "-//W3C//DTD SVG 20010904//EN"
 "http://www.w3.org/TR/2001/REC-SVG-20010904/DTD/svg10.dtd">
<svg version="1.0" xmlns="http://www.w3.org/2000/svg"
 width="226.000000pt" height="223.000000pt" viewBox="0 0 226.000000 223.000000"
 preserveAspectRatio="xMidYMid meet">
<metadata>
Created by potrace 1.10, written by Peter Selinger 2001-2011
</metadata>
<g transform="translate(0.000000,223.000000) scale(0.100000,-0.100000)"
fill="#1a7ed8" stroke="none">
<path d="M923 2196 c-459 -88 -805 -433 -889 -886 -24 -130 -15 -328 19 -462
100 -382 395 -679 782 -785 91 -25 115 -27 275 -27 193 -1 261 12 417 74 439
176 722 639 674 1106 -26 262 -124 473 -305 662 -138 144 -306 242 -508 298
-116 32 -350 42 -465 20z m452 -36 c109 -28 166 -50 158 -63 -3 -6 -1 -7 6 -3
16 10 53 -3 45 -16 -4 -7 -2 -8 4 -4 7 4 22 -2 34 -13 12 -12 29 -21 37 -21
22 -1 52 -25 43 -35 -4 -5 -2 -5 4 -2 14 8 94 -48 94 -65 0 -6 3 -8 7 -5 9 9
34 -13 27 -24 -3 -5 6 -13 20 -19 14 -5 33 -22 43 -37 10 -15 35 -45 56 -66
21 -21 35 -42 32 -46 -2 -5 2 -11 10 -15 8 -3 15 -12 15 -21 0 -8 4 -15 8 -15
11 0 52 -77 52 -97 0 -8 4 -12 8 -9 12 7 79 -195 91 -274 22 -143 23 -224 7
-339 -16 -108 -57 -255 -77 -275 -5 -6 -9 -18 -9 -28 0 -10 -3 -18 -8 -18 -4
0 -13 -15 -21 -32 -16 -36 -89 -148 -122 -188 -11 -14 -18 -19 -14 -12 3 6 4
12 1 12 -3 0 -13 -14 -21 -31 -10 -19 -22 -29 -30 -25 -9 3 -12 0 -9 -9 4 -9
-6 -22 -26 -33 -17 -11 -38 -29 -46 -40 -32 -46 -220 -150 -344 -192 -201 -66
-458 -68 -663 -4 -83 26 -276 124 -313 159 -19 18 -34 30 -34 26 -1 -3 -11 7
-24 22 -13 16 -33 34 -46 40 -12 7 -23 17 -23 22 0 6 -15 23 -33 39 -18 15
-46 48 -61 72 -16 24 -31 44 -35 44 -5 0 -8 4 -8 10 0 5 -14 32 -30 60 -17 28
-27 56 -24 62 4 6 2 8 -4 5 -13 -9 -63 120 -88 228 -23 99 -27 369 -6 455 32
130 82 259 114 294 10 11 18 26 18 34 0 21 62 102 73 95 6 -3 7 -2 4 4 -9 14
22 55 35 47 6 -4 8 -2 5 3 -8 13 17 36 28 25 5 -4 5 -2 1 5 -8 15 33 55 48 46
6 -3 8 -3 4 1 -8 10 23 47 34 40 5 -3 7 -1 6 4 -4 15 88 82 112 82 12 0 19 4
15 9 -3 5 11 15 30 21 19 6 35 16 35 22 0 6 7 7 16 4 8 -3 13 -2 10 3 -12 19
188 83 314 102 94 13 325 2 415 -21z"/>
<path d="M975 2124 c-49 -7 -108 -18 -130 -23 -22 -6 -52 -13 -67 -17 -16 -3
-28 -9 -28 -13 0 -4 -17 -13 -37 -20 -20 -8 -58 -26 -85 -42 -27 -16 -55 -29
-63 -29 -8 0 -15 -4 -15 -10 0 -5 -6 -10 -14 -10 -8 0 -16 -7 -20 -15 -3 -8
-10 -15 -16 -15 -6 0 -23 -14 -37 -30 -13 -17 -29 -27 -34 -24 -5 3 -8 0 -7
-8 2 -7 -3 -12 -10 -10 -7 1 -21 -12 -31 -28 -10 -17 -39 -52 -64 -79 -26 -27
-47 -54 -47 -59 0 -6 -3 -12 -8 -14 -4 -1 -33 -55 -64 -118 -113 -230 -137
-470 -71 -710 8 -30 17 -66 20 -80 4 -14 9 -27 12 -30 15 -13 51 -103 45 -113
-4 -7 -4 -9 1 -5 8 7 65 -74 65 -92 0 -6 5 -10 10 -10 6 0 10 -4 10 -10 0 -17
143 -170 160 -170 5 0 10 -7 10 -15 0 -9 8 -19 18 -22 9 -4 19 -9 22 -12 8 -9
46 -31 143 -81 48 -26 85 -49 81 -52 -3 -4 3 -4 15 -1 12 3 27 0 34 -6 25 -20
182 -52 287 -58 107 -6 199 4 320 34 36 8 71 20 77 25 7 6 21 7 30 4 10 -4 14
-4 10 0 -3 4 28 25 71 46 117 59 122 62 122 71 0 4 7 7 15 7 8 0 15 4 15 9 0
5 11 12 25 15 14 4 23 11 20 16 -3 6 1 10 9 10 9 0 16 7 16 16 0 8 5 12 10 9
6 -3 10 1 10 10 0 9 5 13 10 10 6 -3 10 1 10 9 0 9 7 16 16 16 8 0 12 4 9 10
-3 5 1 10 9 10 9 0 15 4 14 9 -2 5 8 18 21 30 13 12 20 21 16 21 -4 0 2 8 13
19 12 10 22 23 22 30 0 6 5 11 10 11 6 0 10 6 10 14 0 8 3 16 8 18 4 2 25 40
47 85 21 46 42 83 47 83 4 0 5 7 2 15 -4 8 -2 21 3 28 10 13 26 68 43 155 15
80 12 286 -5 367 -9 39 -19 87 -22 107 -3 21 -9 35 -14 32 -5 -3 -9 3 -9 12 0
21 -77 182 -96 201 -7 8 -21 29 -30 48 -9 19 -21 35 -26 35 -5 0 -6 6 -2 13 4
6 4 9 -1 5 -9 -9 -61 52 -57 67 2 5 1 7 -3 3 -9 -8 -35 16 -35 32 0 6 -4 9 -9
5 -5 -3 -19 6 -30 21 -24 30 -116 89 -221 142 -41 20 -77 40 -80 43 -3 3 -27
11 -55 18 -27 7 -66 16 -85 21 -48 12 -197 30 -240 29 -19 -1 -75 -7 -125 -15z
m345 -31 c335 -67 624 -323 736 -650 129 -379 32 -783 -253 -1053 -130 -124
-272 -203 -451 -252 -63 -18 -106 -21 -237 -22 -144 0 -170 2 -258 27 -349 96
-621 372 -713 722 -23 86 -27 120 -27 250 0 129 3 163 25 245 50 185 131 326
267 460 47 48 112 103 144 124 233 152 497 204 767 149z"/>
<path d="M640 1779 c-165 -124 -271 -281 -321 -478 -18 -71 -21 -105 -17 -220
4 -120 8 -147 37 -231 17 -52 50 -126 73 -165 52 -89 191 -227 283 -281 l70
-41 31 116 c17 64 33 123 35 131 4 9 -14 27 -50 50 -143 93 -225 249 -225 430
0 47 6 103 13 125 16 54 63 155 71 155 4 0 86 -119 183 -264 l176 -265 111 -3
110 -3 178 267 c97 147 180 268 183 268 13 0 51 -84 69 -156 34 -133 20 -249
-46 -375 -33 -62 -120 -159 -166 -185 -15 -8 -14 -20 17 -138 19 -71 36 -130
38 -132 2 -2 30 13 63 34 439 286 504 904 134 1272 -36 36 -86 79 -111 96
l-44 32 -209 -324 c-115 -178 -210 -324 -212 -324 -1 0 -95 146 -209 325 -113
179 -207 325 -208 325 -1 0 -27 -19 -57 -41z m102 -59 c7 -14 15 -27 18 -30 3
-3 14 -21 25 -41 11 -20 43 -70 71 -110 28 -41 57 -89 65 -106 8 -18 17 -33
21 -33 5 0 8 -7 8 -15 0 -8 5 -15 11 -15 5 0 7 -4 4 -10 -3 -5 -2 -10 3 -10 9
0 82 -103 82 -116 0 -15 52 -74 65 -74 8 0 22 11 31 25 9 14 21 22 27 18 6 -3
7 -1 3 5 -9 14 67 135 78 125 4 -5 7 -3 6 2 -4 20 1 33 25 61 14 16 25 32 25
37 0 13 93 147 102 147 5 0 6 5 3 10 -3 6 1 13 9 16 9 3 13 10 10 15 -3 5 0 9
5 9 6 0 11 6 11 13 0 7 9 23 20 35 11 12 20 26 20 32 0 28 33 60 62 60 20 0
27 -4 22 -12 -5 -7 -2 -9 9 -5 10 4 18 -1 22 -14 4 -10 13 -19 21 -19 8 0 12
-4 9 -10 -3 -5 0 -10 8 -10 8 0 32 -19 53 -43 61 -68 71 -82 66 -95 -2 -7 1
-11 6 -10 6 2 10 0 11 -4 1 -5 9 -16 19 -26 34 -34 84 -173 98 -272 17 -122
17 -196 0 -295 -16 -88 -19 -100 -47 -162 -10 -24 -19 -47 -19 -51 0 -5 -11
-21 -25 -36 -13 -14 -23 -28 -22 -30 2 -4 -40 -61 -60 -82 -7 -7 -13 -18 -13
-24 0 -6 -4 -8 -10 -5 -5 3 -10 -1 -10 -9 0 -9 -6 -15 -12 -13 -7 1 -12 -4
-11 -10 2 -7 -2 -13 -7 -13 -6 0 -29 -17 -51 -38 -23 -20 -43 -35 -45 -32 -2
3 -9 -2 -16 -11 -14 -18 -53 -35 -43 -19 3 6 2 10 -2 10 -5 0 -15 28 -22 62
-7 35 -17 76 -22 92 -5 16 -9 33 -9 38 0 13 113 123 123 120 5 -1 6 1 3 6 -3
5 4 19 15 31 45 49 99 217 99 309 0 85 -60 273 -93 294 -16 10 -41 -6 -56 -36
-8 -14 -17 -23 -21 -21 -4 2 -7 -1 -7 -8 0 -21 -55 -97 -66 -90 -6 3 -7 1 -3
-5 4 -7 -2 -22 -13 -34 -12 -12 -21 -25 -21 -30 0 -19 -93 -147 -103 -141 -6
3 -7 1 -3 -6 4 -6 -6 -27 -23 -48 -17 -21 -31 -43 -31 -50 0 -7 -4 -13 -9 -13
-5 0 -11 -9 -14 -20 -4 -17 -14 -20 -64 -21 -58 -2 -100 -2 -138 0 -13 1 -28
15 -40 39 -11 20 -25 42 -31 47 -17 14 -116 165 -109 165 6 0 0 9 -40 54 -24
28 -29 40 -25 61 1 5 -2 7 -6 3 -4 -5 -23 16 -42 45 -71 106 -82 118 -101 107
-27 -14 -71 -114 -87 -200 -12 -60 -13 -91 -4 -159 11 -85 57 -207 92 -247 10
-11 15 -24 11 -28 -5 -4 -1 -6 7 -4 8 2 14 -3 13 -9 -2 -7 1 -13 7 -13 15 0
50 -33 44 -42 -3 -5 -2 -7 3 -6 13 5 53 -28 45 -37 -4 -5 -1 -5 6 -1 16 10 42
-17 42 -44 0 -12 -4 -19 -9 -16 -4 3 -14 -29 -22 -70 -19 -106 -26 -114 -75
-84 -21 14 -52 37 -67 52 -16 15 -34 28 -40 28 -7 0 -31 22 -55 48 -57 63 -73
82 -67 82 2 0 -7 12 -21 27 -36 39 -91 160 -109 241 -13 55 -15 109 -12 234 2
90 7 177 11 193 20 87 104 255 127 255 5 0 12 8 16 18 11 32 54 82 65 76 6 -4
8 -2 5 4 -4 5 14 24 40 41 25 17 42 31 37 31 -4 0 1 7 13 15 12 8 29 12 39 8
13 -5 15 -3 10 8 -4 8 1 3 13 -11 11 -14 26 -36 33 -50z m-425 -562 c-3 -8 -6
-5 -6 6 -1 11 2 17 5 13 3 -3 4 -12 1 -19z m0 -100 c-3 -8 -6 -5 -6 6 -1 11 2
17 5 13 3 -3 4 -12 1 -19z"/>
</g>
</svg>
